<svg width="122" height="19" viewBox="0 0 122 19" fill="none" xmlns="http://www.w3.org/2000/svg">
<path d="M23.832 0.863999L19.92 18H14.088L12.84 10.776C12.824 10.632 12.784 10.392 12.72 10.056C12.672 9.72 12.616 9.328 12.552 8.88C12.488 8.432 12.424 7.984 12.36 7.536C12.312 7.088 12.272 6.688 12.24 6.336C12.208 6.688 12.16 7.088 12.096 7.536C12.032 7.984 11.968 8.432 11.904 8.88C11.84 9.328 11.776 9.72 11.712 10.056C11.664 10.392 11.624 10.632 11.592 10.776L10.32 18H4.464L0.528 0.863999H5.208L6.984 9.696C7.032 9.904 7.08 10.184 7.128 10.536C7.192 10.872 7.256 11.248 7.32 11.664C7.384 12.064 7.44 12.472 7.488 12.888C7.536 13.288 7.576 13.656 7.608 13.992C7.656 13.624 7.704 13.272 7.752 12.936C7.8 12.584 7.848 12.24 7.896 11.904C7.944 11.568 8 11.232 8.064 10.896C8.128 10.544 8.192 10.192 8.256 9.84L9.984 0.863999H14.568L16.176 9.624C16.24 9.96 16.296 10.304 16.344 10.656C16.408 11.008 16.464 11.368 16.512 11.736C16.56 12.088 16.608 12.456 16.656 12.84C16.72 13.208 16.784 13.592 16.848 13.992C16.912 13.512 16.992 12.976 17.088 12.384C17.2 11.792 17.304 11.232 17.4 10.704C17.512 10.176 17.592 9.768 17.64 9.48L19.272 0.863999H23.832ZM35.6556 18H25.9356V0.863999H35.6556V4.584H30.8316V7.272H35.2956V10.992H30.8316V14.232H35.6556V18ZM38.1699 18V0.863999H43.0659V14.256H49.0659V18H38.1699ZM58.6446 4.416C58.1326 4.416 57.6766 4.536 57.2766 4.776C56.8926 5 56.5646 5.336 56.2926 5.784C56.0366 6.216 55.8446 6.744 55.7166 7.368C55.5886 7.992 55.5246 8.704 55.5246 9.504C55.5246 10.576 55.6526 11.48 55.9086 12.216C56.1806 12.952 56.5726 13.512 57.0846 13.896C57.6126 14.264 58.2606 14.448 59.0286 14.448C59.7326 14.448 60.3966 14.344 61.0206 14.136C61.6606 13.928 62.2766 13.672 62.8686 13.368V17.28C62.1646 17.616 61.4206 17.856 60.6366 18C59.8526 18.16 59.0526 18.24 58.2366 18.24C56.4286 18.24 54.9566 17.872 53.8206 17.136C52.6846 16.4 51.8526 15.376 51.3246 14.064C50.7966 12.736 50.5326 11.208 50.5326 9.48C50.5326 8.184 50.7006 7 51.0366 5.928C51.3886 4.84 51.9006 3.904 52.5726 3.12C53.2606 2.32 54.0926 1.704 55.0686 1.272C56.0606 0.839999 57.1966 0.623999 58.4766 0.623999C59.2446 0.623999 60.1006 0.727999 61.0446 0.935999C61.9886 1.144 62.8446 1.44 63.6126 1.824L62.1486 5.472C61.6046 5.168 61.0526 4.92 60.4926 4.728C59.9486 4.52 59.3326 4.416 58.6446 4.416ZM80.7163 9.408C80.7163 10.736 80.5643 11.944 80.2603 13.032C79.9723 14.104 79.5083 15.032 78.8683 15.816C78.2443 16.6 77.4283 17.2 76.4203 17.616C75.4283 18.032 74.2203 18.24 72.7963 18.24C71.4043 18.24 70.2123 18.032 69.2203 17.616C68.2283 17.2 67.4123 16.6 66.7723 15.816C66.1323 15.032 65.6523 14.104 65.3323 13.032C65.0283 11.944 64.8763 10.728 64.8763 9.384C64.8763 7.608 65.1563 6.064 65.7163 4.752C66.2763 3.424 67.1403 2.4 68.3083 1.68C69.4763 0.96 70.9803 0.599999 72.8203 0.599999C74.7083 0.599999 76.2283 0.967999 77.3803 1.704C78.5483 2.424 79.3963 3.448 79.9243 4.776C80.4523 6.088 80.7163 7.632 80.7163 9.408ZM70.0123 9.408C70.0123 10.432 70.1003 11.32 70.2763 12.072C70.4683 12.808 70.7723 13.376 71.1883 13.776C71.6043 14.176 72.1403 14.376 72.7963 14.376C73.5003 14.376 74.0523 14.176 74.4523 13.776C74.8523 13.376 75.1403 12.808 75.3163 12.072C75.4923 11.32 75.5803 10.432 75.5803 9.408C75.5803 7.856 75.3723 6.632 74.9563 5.736C74.5563 4.84 73.8443 4.392 72.8203 4.392C72.1323 4.392 71.5803 4.6 71.1643 5.016C70.7483 5.416 70.4523 5.992 70.2763 6.744C70.1003 7.48 70.0123 8.368 70.0123 9.408ZM90.6763 18L87.5803 5.424H87.4843C87.5163 5.744 87.5483 6.176 87.5803 6.72C87.6123 7.264 87.6443 7.856 87.6763 8.496C87.7083 9.12 87.7243 9.728 87.7243 10.32V18H83.4043V0.863999H90.4363L92.9563 11.424H93.0283L95.3563 0.863999H102.388V18H97.9243V10.248C97.9243 9.704 97.9323 9.128 97.9483 8.52C97.9643 7.896 97.9803 7.312 97.9963 6.768C98.0283 6.208 98.0603 5.768 98.0923 5.448H97.9963L95.1403 18H90.6763ZM115.273 18H105.553V0.863999H115.273V4.584H110.449V7.272H114.913V10.992H110.449V14.232H115.273V18ZM116.971 16.056C116.971 15.224 117.227 14.64 117.739 14.304C118.251 13.968 118.851 13.8 119.539 13.8C120.195 13.8 120.763 13.968 121.243 14.304C121.739 14.64 121.987 15.224 121.987 16.056C121.987 16.84 121.739 17.408 121.243 17.76C120.763 18.112 120.195 18.288 119.539 18.288C118.851 18.288 118.251 18.112 117.739 17.76C117.227 17.408 116.971 16.84 116.971 16.056Z" fill="black"/>
</svg>
