<svg width="34" height="30" viewBox="0 0 34 30" fill="none" xmlns="http://www.w3.org/2000/svg">
<path d="M28.1379 18.3197C28.1379 19.46 27.2135 20.3845 26.0731 20.3845C24.9327 20.3845 24.0083 19.46 24.0083 18.3197C24.0083 17.1793 24.9327 16.2549 26.0731 16.2549C27.2135 16.2549 28.1379 17.1793 28.1379 18.3197Z" stroke="black" stroke-width="2"/>
<path fill-rule="evenodd" clip-rule="evenodd" d="M21.0498 2.24196C21.4341 2.1041 21.8636 2.21372 22.1349 2.51889L25.5589 6.37125H9.53866L21.0498 2.24196ZM3.7811 6.37125L3.76221 6.3186L20.3745 0.359421C21.5274 -0.0541656 22.816 0.274703 23.6297 1.19022L28.2347 6.37125H31.4784C32.583 6.37125 33.4784 7.26668 33.4784 8.37125V27.5718C33.4784 28.6763 32.583 29.5718 31.4784 29.5718H2.27637C1.1718 29.5718 0.276367 28.6763 0.276367 27.5718V8.37126C0.276367 7.26669 1.1718 6.37125 2.27637 6.37125H3.7811ZM2.27637 8.37125H31.4784V27.5718L2.27637 27.5718L2.27637 8.37125Z" fill="black"/>
</svg>
