<svg width="36" height="42" viewBox="0 0 36 42" fill="none" xmlns="http://www.w3.org/2000/svg">
<path d="M14.6543 39.3564H4.73682C2.216 39.3564 0.159546 37.2999 0.159546 34.7791V4.72828C0.159546 2.20746 2.216 0.151001 4.73682 0.151001H22.6147C25.1355 0.151001 27.192 2.20746 27.192 4.72828V18.0953C27.192 18.7255 26.6613 19.2562 26.0311 19.2562C25.4009 19.2562 24.8702 18.7255 24.8702 18.0953V4.72828C24.8702 3.50104 23.842 2.47281 22.6147 2.47281H4.73682C3.50958 2.47281 2.48135 3.50104 2.48135 4.72828V34.7791C2.48135 36.0063 3.50958 37.0346 4.73682 37.0346H14.6543C15.2845 37.0346 15.8152 37.5653 15.8152 38.1955C15.8152 38.8257 15.3176 39.3564 14.6543 39.3564Z" fill="black"/>
<path d="M22.8137 41.9767C22.482 41.9767 22.1835 41.8108 21.9845 41.5123L20.7572 39.6217C19.8617 39.091 16.9097 37.0677 16.0804 33.1206C15.9478 32.4573 15.8483 31.7607 15.8483 31.0642C15.8483 25.7572 20.1934 21.4121 25.5335 21.4121C30.8737 21.4121 35.2188 25.7572 35.2188 31.0974C35.2188 36.3712 30.9732 40.6499 25.7325 40.7826L23.2117 41.9103C23.1122 41.9767 22.9464 41.9767 22.8137 41.9767ZM25.5335 23.4022C21.2879 23.4022 17.8384 26.8518 17.8384 31.0642C17.8384 31.6281 17.9047 32.1919 18.0042 32.6895C18.7671 36.338 21.8518 37.9633 21.885 37.9964C22.0508 38.0628 22.1835 38.1955 22.2498 38.3281L23.1454 39.7212L25.1023 38.8588C25.235 38.7925 25.3677 38.7593 25.5003 38.7593C29.7459 38.7593 33.1955 35.3098 33.1955 31.0642C33.1955 26.8186 29.7791 23.4022 25.5335 23.4022Z" fill="black"/>
<path d="M19.9944 30.8321C19.9944 30.9976 20.027 31.1615 20.0903 31.3144C20.1537 31.4673 20.2465 31.6063 20.3636 31.7233C20.4806 31.8403 20.6195 31.9332 20.7725 31.9965C20.9254 32.0599 21.0893 32.0925 21.2548 32.0925C21.4203 32.0925 21.5842 32.0599 21.7371 31.9965C21.8901 31.9332 22.029 31.8403 22.146 31.7233C22.2631 31.6063 22.3559 31.4673 22.4193 31.3144C22.4826 31.1615 22.5152 30.9976 22.5152 30.8321C22.5152 30.6665 22.4826 30.5026 22.4193 30.3497C22.3559 30.1968 22.2631 30.0579 22.146 29.9408C22.029 29.8238 21.8901 29.7309 21.7371 29.6676C21.5842 29.6043 21.4203 29.5717 21.2548 29.5717C21.0893 29.5717 20.9254 29.6043 20.7725 29.6676C20.6195 29.7309 20.4806 29.8238 20.3636 29.9408C20.2465 30.0579 20.1537 30.1968 20.0903 30.3497C20.027 30.5026 19.9944 30.6665 19.9944 30.8321Z" fill="black"/>
<path d="M24.439 30.8321C24.439 30.9976 24.4716 31.1615 24.5349 31.3144C24.5982 31.4673 24.6911 31.6063 24.8081 31.7233C24.9252 31.8403 25.0641 31.9332 25.217 31.9965C25.37 32.0599 25.5339 32.0925 25.6994 32.0925C25.8649 32.0925 26.0288 32.0599 26.1817 31.9965C26.3346 31.9332 26.4736 31.8403 26.5906 31.7233C26.7077 31.6063 26.8005 31.4673 26.8638 31.3144C26.9272 31.1615 26.9598 30.9976 26.9598 30.8321C26.9598 30.6665 26.9272 30.5026 26.8638 30.3497C26.8005 30.1968 26.7077 30.0579 26.5906 29.9408C26.4736 29.8238 26.3346 29.7309 26.1817 29.6676C26.0288 29.6043 25.8649 29.5717 25.6994 29.5717C25.5339 29.5717 25.37 29.6043 25.217 29.6676C25.0641 29.7309 24.9252 29.8238 24.8081 29.9408C24.6911 30.0579 24.5982 30.1968 24.5349 30.3497C24.4716 30.5026 24.439 30.6665 24.439 30.8321Z" fill="black"/>
<path d="M28.8503 30.8321C28.8503 31.1663 28.9831 31.4869 29.2195 31.7233C29.4559 31.9597 29.7765 32.0925 30.1108 32.0925C30.445 32.0925 30.7656 31.9597 31.002 31.7233C31.2384 31.4869 31.3712 31.1663 31.3712 30.8321C31.3712 30.4978 31.2384 30.1772 31.002 29.9408C30.7656 29.7044 30.445 29.5717 30.1108 29.5717C29.7765 29.5717 29.4559 29.7044 29.2195 29.9408C28.9831 30.1772 28.8503 30.4978 28.8503 30.8321Z" fill="black"/>
<path d="M12.7305 32.0924H2.24916C1.61896 32.0924 1.08826 31.5617 1.08826 30.9315C1.08826 30.3013 1.61896 29.7706 2.24916 29.7706H12.7305C13.3607 29.7706 13.8914 30.3013 13.8914 30.9315C13.8914 31.5617 13.3607 32.0924 12.7305 32.0924Z" fill="black"/>
</svg>
