<svg width="39" height="27" viewBox="0 0 39 27" fill="none" xmlns="http://www.w3.org/2000/svg">
<path d="M1.95 7.71428H37.05V3.85714C37.05 3.34565 36.8446 2.85511 36.4789 2.49344C36.1132 2.13176 35.6172 1.92857 35.1 1.92857H3.9C3.38283 1.92857 2.88684 2.13176 2.52114 2.49344C2.15545 2.85511 1.95 3.34565 1.95 3.85714V7.71428ZM1.95 9.64286V23.1429C1.95 23.6543 2.15545 24.1449 2.52114 24.5066C2.88684 24.8682 3.38283 25.0714 3.9 25.0714H35.1C35.6172 25.0714 36.1132 24.8682 36.4789 24.5066C36.8446 24.1449 37.05 23.6543 37.05 23.1429V9.64286H1.95ZM3.9 0H35.1C36.1343 0 37.1263 0.406376 37.8577 1.12973C38.5891 1.85309 39 2.83416 39 3.85714V23.1429C39 24.1658 38.5891 25.1469 37.8577 25.8703C37.1263 26.5936 36.1343 27 35.1 27H3.9C2.86566 27 1.87368 26.5936 1.14228 25.8703C0.410892 25.1469 0 24.1658 0 23.1429L0 3.85714C0 2.83416 0.410892 1.85309 1.14228 1.12973C1.87368 0.406376 2.86566 0 3.9 0ZM4.875 21.2143H18.525C18.653 21.2143 18.7798 21.2392 18.8981 21.2877C19.0164 21.3361 19.1239 21.4072 19.2144 21.4967C19.305 21.5863 19.3768 21.6926 19.4258 21.8096C19.4748 21.9265 19.5 22.0519 19.5 22.1786C19.5 22.3052 19.4748 22.4306 19.4258 22.5476C19.3768 22.6646 19.305 22.7709 19.2144 22.8604C19.1239 22.95 19.0164 23.021 18.8981 23.0695C18.7798 23.1179 18.653 23.1429 18.525 23.1429H4.875C4.74696 23.1429 4.62018 23.1179 4.50188 23.0695C4.38359 23.021 4.27611 22.95 4.18557 22.8604C4.09503 22.7709 4.02322 22.6646 3.97422 22.5476C3.92522 22.4306 3.9 22.3052 3.9 22.1786C3.9 22.0519 3.92522 21.9265 3.97422 21.8096C4.02322 21.6926 4.09503 21.5863 4.18557 21.4967C4.27611 21.4072 4.38359 21.3361 4.50188 21.2877C4.62018 21.2392 4.74696 21.2143 4.875 21.2143ZM22.425 21.2143H24.375C24.503 21.2143 24.6298 21.2392 24.7481 21.2877C24.8664 21.3361 24.9739 21.4072 25.0644 21.4967C25.155 21.5863 25.2268 21.6926 25.2758 21.8096C25.3248 21.9265 25.35 22.0519 25.35 22.1786C25.35 22.3052 25.3248 22.4306 25.2758 22.5476C25.2268 22.6646 25.155 22.7709 25.0644 22.8604C24.9739 22.95 24.8664 23.021 24.7481 23.0695C24.6298 23.1179 24.503 23.1429 24.375 23.1429H22.425C22.297 23.1429 22.1702 23.1179 22.0519 23.0695C21.9336 23.021 21.8261 22.95 21.7356 22.8604C21.645 22.7709 21.5732 22.6646 21.5242 22.5476C21.4752 22.4306 21.45 22.3052 21.45 22.1786C21.45 22.0519 21.4752 21.9265 21.5242 21.8096C21.5732 21.6926 21.645 21.5863 21.7356 21.4967C21.8261 21.4072 21.9336 21.3361 22.0519 21.2877C22.1702 21.2392 22.297 21.2143 22.425 21.2143Z" fill="black"/>
</svg>
